<svg width="611" height="727" viewBox="0 0 611 727" fill="none" xmlns="http://www.w3.org/2000/svg">
<path d="M626.482 589.982C584.596 634.79 563.653 657.194 542.708 672.592C449.621 741.026 324.059 745.258 226.575 683.247C204.641 669.295 182.237 648.352 137.429 606.466C92.6208 564.579 70.2168 543.636 54.8188 522.691C-13.615 429.604 -17.847 304.042 44.1636 206.559C58.1164 184.624 79.0594 162.22 120.945 117.412L451.512 -236.214C456.662 -241.724 459.238 -244.479 462.55 -244.591C465.861 -244.703 468.616 -242.127 474.126 -236.977L956.286 213.741C961.796 218.891 964.551 221.467 964.663 224.779C964.774 228.09 962.199 230.845 957.048 236.355L626.482 589.982Z" fill="#FFECD7"/>
</svg>
